<svg width="148" height="62" viewBox="0 0 148 62" fill="none" xmlns="http://www.w3.org/2000/svg">
<path d="M79.2912 37V23.9091H84.3026C85.2486 23.9091 86.0348 24.0582 86.6612 24.3565C87.2919 24.6506 87.7628 25.0533 88.0739 25.5646C88.3892 26.076 88.5469 26.6555 88.5469 27.3033C88.5469 27.8359 88.4446 28.2919 88.2401 28.6712C88.0355 29.0462 87.7607 29.3509 87.4155 29.5852C87.0703 29.8196 86.6847 29.9879 86.2585 30.0902V30.218C86.723 30.2436 87.1683 30.3864 87.5945 30.6463C88.0249 30.902 88.3764 31.2642 88.6491 31.733C88.9219 32.2017 89.0582 32.7685 89.0582 33.4332C89.0582 34.1108 88.8942 34.7202 88.5661 35.2614C88.2379 35.7983 87.7436 36.2223 87.0831 36.5334C86.4226 36.8445 85.5916 37 84.5902 37H79.2912ZM81.6626 35.0185H84.2131C85.0739 35.0185 85.6939 34.8544 86.0732 34.5263C86.4567 34.1939 86.6484 33.7678 86.6484 33.2479C86.6484 32.8601 86.5526 32.5107 86.3608 32.1996C86.169 31.8842 85.8963 31.6371 85.5426 31.4581C85.1889 31.2749 84.767 31.1832 84.277 31.1832H81.6626V35.0185ZM81.6626 29.4766H84.0085C84.4176 29.4766 84.7862 29.402 85.1143 29.2528C85.4425 29.0994 85.7003 28.8842 85.8878 28.6072C86.0795 28.326 86.1754 27.9936 86.1754 27.6101C86.1754 27.103 85.9964 26.6854 85.6385 26.3572C85.2848 26.0291 84.7585 25.8651 84.0597 25.8651H81.6626V29.4766ZM91.019 37V27.1818H93.3329V37H91.019ZM92.1824 25.7884C91.8159 25.7884 91.5005 25.6669 91.2363 25.424C90.9721 25.1768 90.84 24.8807 90.84 24.5355C90.84 24.1861 90.9721 23.8899 91.2363 23.647C91.5005 23.3999 91.8159 23.2763 92.1824 23.2763C92.5531 23.2763 92.8684 23.3999 93.1284 23.647C93.3926 23.8899 93.5247 24.1861 93.5247 24.5355C93.5247 24.8807 93.3926 25.1768 93.1284 25.424C92.8684 25.6669 92.5531 25.7884 92.1824 25.7884ZM98.0263 31.2472V37H95.7124V27.1818H97.924V28.8501H98.0391C98.2649 28.3004 98.625 27.8636 99.1193 27.5398C99.6179 27.2159 100.234 27.054 100.967 27.054C101.644 27.054 102.234 27.1989 102.737 27.4886C103.244 27.7784 103.636 28.1982 103.913 28.7479C104.195 29.2976 104.333 29.9645 104.329 30.7486V37H102.015V31.1065C102.015 30.4503 101.844 29.9368 101.504 29.5661C101.167 29.1953 100.7 29.0099 100.104 29.0099C99.6989 29.0099 99.3388 29.0994 99.0234 29.2784C98.7124 29.4531 98.4673 29.7067 98.2884 30.0391C98.1136 30.3714 98.0263 30.7741 98.0263 31.2472ZM109.506 37.1982C108.884 37.1982 108.324 37.0874 107.825 36.8658C107.331 36.6399 106.939 36.3075 106.649 35.8686C106.364 35.4297 106.221 34.8885 106.221 34.245C106.221 33.6911 106.323 33.233 106.528 32.8707C106.732 32.5085 107.011 32.2188 107.365 32.0014C107.719 31.7841 108.117 31.62 108.56 31.5092C109.008 31.3942 109.47 31.3111 109.947 31.2599C110.523 31.2003 110.989 31.147 111.347 31.1001C111.705 31.049 111.965 30.9723 112.127 30.87C112.293 30.7635 112.376 30.5994 112.376 30.3778V30.3395C112.376 29.858 112.234 29.4851 111.948 29.2209C111.663 28.9567 111.251 28.8246 110.714 28.8246C110.148 28.8246 109.698 28.9482 109.366 29.1953C109.038 29.4425 108.816 29.7344 108.701 30.071L106.54 29.7642C106.711 29.1676 106.992 28.669 107.384 28.2685C107.776 27.8636 108.256 27.5611 108.822 27.3608C109.389 27.1562 110.016 27.054 110.702 27.054C111.175 27.054 111.646 27.1094 112.114 27.2202C112.583 27.331 113.011 27.5142 113.399 27.7699C113.787 28.0213 114.098 28.3643 114.332 28.799C114.571 29.2337 114.69 29.777 114.69 30.429V37H112.466V35.6513H112.389C112.249 35.924 112.05 36.1797 111.795 36.4183C111.543 36.6527 111.226 36.8423 110.842 36.9872C110.463 37.1278 110.018 37.1982 109.506 37.1982ZM110.107 35.4979C110.572 35.4979 110.974 35.4062 111.315 35.223C111.656 35.0355 111.918 34.7884 112.102 34.4815C112.289 34.1747 112.383 33.8402 112.383 33.478V32.321C112.31 32.3807 112.187 32.4361 112.012 32.4872C111.842 32.5384 111.65 32.5831 111.437 32.6214C111.224 32.6598 111.013 32.6939 110.804 32.7237C110.595 32.7536 110.414 32.7791 110.261 32.8004C109.915 32.8473 109.607 32.924 109.334 33.0305C109.061 33.1371 108.846 33.2862 108.688 33.478C108.531 33.6655 108.452 33.9084 108.452 34.2067C108.452 34.6328 108.607 34.9545 108.918 35.1719C109.229 35.3892 109.626 35.4979 110.107 35.4979ZM119.331 31.2472V37H117.017V27.1818H119.229V28.8501H119.344C119.57 28.3004 119.93 27.8636 120.424 27.5398C120.923 27.2159 121.538 27.054 122.271 27.054C122.949 27.054 123.539 27.1989 124.042 27.4886C124.549 27.7784 124.941 28.1982 125.218 28.7479C125.499 29.2976 125.638 29.9645 125.634 30.7486V37H123.32V31.1065C123.32 30.4503 123.149 29.9368 122.808 29.5661C122.472 29.1953 122.005 29.0099 121.408 29.0099C121.004 29.0099 120.643 29.0994 120.328 29.2784C120.017 29.4531 119.772 29.7067 119.593 30.0391C119.418 30.3714 119.331 30.7741 119.331 31.2472ZM132.268 37.1918C131.288 37.1918 130.447 36.9766 129.744 36.5462C129.045 36.1158 128.506 35.5213 128.126 34.7628C127.751 34 127.564 33.1222 127.564 32.1293C127.564 31.1321 127.756 30.2521 128.139 29.4893C128.523 28.7223 129.064 28.1257 129.763 27.6996C130.466 27.2692 131.297 27.054 132.256 27.054C133.053 27.054 133.758 27.201 134.371 27.495C134.989 27.7848 135.482 28.196 135.848 28.7287C136.214 29.2571 136.423 29.875 136.474 30.5824H134.263C134.173 30.1094 133.96 29.7152 133.624 29.3999C133.291 29.0803 132.846 28.9205 132.288 28.9205C131.815 28.9205 131.399 29.0483 131.041 29.304C130.683 29.5554 130.404 29.9176 130.204 30.3906C130.008 30.8636 129.91 31.4304 129.91 32.0909C129.91 32.7599 130.008 33.3352 130.204 33.8168C130.4 34.294 130.675 34.6626 131.028 34.9226C131.386 35.1783 131.806 35.3061 132.288 35.3061C132.629 35.3061 132.933 35.2422 133.202 35.1143C133.474 34.9822 133.702 34.7926 133.886 34.5455C134.069 34.2983 134.195 33.9979 134.263 33.6442H136.474C136.419 34.3388 136.214 34.9545 135.861 35.4915C135.507 36.0241 135.026 36.4418 134.416 36.7443C133.807 37.0426 133.091 37.1918 132.268 37.1918ZM142.721 37.1918C141.737 37.1918 140.887 36.9872 140.171 36.5781C139.459 36.1648 138.911 35.581 138.528 34.8267C138.144 34.0682 137.953 33.1754 137.953 32.1484C137.953 31.1385 138.144 30.2521 138.528 29.4893C138.916 28.7223 139.457 28.1257 140.151 27.6996C140.846 27.2692 141.662 27.054 142.6 27.054C143.205 27.054 143.776 27.152 144.313 27.348C144.854 27.5398 145.331 27.8381 145.744 28.2429C146.162 28.6477 146.49 29.1634 146.729 29.7898C146.968 30.4119 147.087 31.1534 147.087 32.0142V32.7237H139.039V31.1641H144.869C144.865 30.7209 144.769 30.3267 144.581 29.9815C144.394 29.6321 144.132 29.3572 143.795 29.157C143.463 28.9567 143.075 28.8565 142.632 28.8565C142.159 28.8565 141.743 28.9716 141.385 29.2017C141.027 29.4276 140.748 29.7259 140.548 30.0966C140.352 30.4631 140.252 30.8658 140.247 31.3047V32.6662C140.247 33.2372 140.352 33.7273 140.561 34.1364C140.769 34.5412 141.061 34.8523 141.436 35.0696C141.811 35.2827 142.25 35.3892 142.753 35.3892C143.09 35.3892 143.394 35.3423 143.667 35.2486C143.94 35.1506 144.176 35.0078 144.377 34.8203C144.577 34.6328 144.728 34.4006 144.83 34.1236L146.991 34.3665C146.855 34.9375 146.595 35.4361 146.211 35.8622C145.832 36.2841 145.346 36.6122 144.754 36.8466C144.161 37.0767 143.484 37.1918 142.721 37.1918Z" fill="white"/>
<path opacity="0.2" d="M31 62C48.1208 62 62 48.1208 62 31C62 13.8792 48.1208 0 31 0C13.8792 0 0 13.8792 0 31C0 48.1208 13.8792 62 31 62Z" fill="#F3BA2F"/>
<path fill-rule="evenodd" clip-rule="evenodd" d="M24.5178 28.3354L31.0019 21.8542L37.4887 28.3407L41.2594 24.5674L31.0019 14.3076L20.7444 24.5648L24.5178 28.3354ZM14.3071 31.0005L18.0791 27.2286L21.8512 31.0005L18.0791 34.7724L14.3071 31.0005ZM31.0029 40.1483L24.5188 33.6644L20.7402 37.4324L20.7454 37.4376L31.0029 47.6922L41.2604 37.4324L41.2631 37.4297L37.4897 33.6617L31.0029 40.1483ZM40.1472 31.0014L43.9192 27.2295L47.6912 31.0014L43.9192 34.7733L40.1472 31.0014ZM31.0032 27.17L34.8293 30.9986H34.8319L34.8293 31.0012L31.0032 34.8299L27.177 31.0065L27.1718 30.9986L27.177 30.9933L27.8468 30.3236L28.1738 29.9992L31.0032 27.17Z" fill="#F3BA2F"/>
</svg>
