<svg width="193" height="131" viewBox="0 0 193 131" fill="none" xmlns="http://www.w3.org/2000/svg">
<path d="M118.264 73V58.4545H124.088C125.158 58.4545 126.051 58.6132 126.766 58.9304C127.481 59.2476 128.018 59.688 128.378 60.2514C128.738 60.8101 128.918 61.4541 128.918 62.1832C128.918 62.7514 128.804 63.2509 128.577 63.6818C128.349 64.108 128.037 64.4583 127.639 64.733C127.246 65.0028 126.796 65.1946 126.29 65.3082V65.4503C126.844 65.474 127.362 65.6302 127.845 65.919C128.333 66.2079 128.728 66.6127 129.031 67.1335C129.334 67.6496 129.486 68.2652 129.486 68.9801C129.486 69.7519 129.294 70.4408 128.911 71.0469C128.532 71.6482 127.971 72.1241 127.227 72.4744C126.484 72.8248 125.568 73 124.479 73H118.264ZM121.339 70.4858H123.847C124.704 70.4858 125.329 70.3224 125.722 69.9957C126.115 69.6643 126.311 69.224 126.311 68.6747C126.311 68.2723 126.214 67.9171 126.02 67.6094C125.826 67.3016 125.549 67.0601 125.189 66.8849C124.834 66.7098 124.41 66.6222 123.918 66.6222H121.339V70.4858ZM121.339 64.5412H123.619C124.041 64.5412 124.415 64.4678 124.741 64.321C125.073 64.1695 125.333 63.9564 125.523 63.6818C125.717 63.4072 125.814 63.0781 125.814 62.6946C125.814 62.169 125.627 61.7453 125.253 61.4233C124.884 61.1013 124.358 60.9403 123.676 60.9403H121.339V64.5412ZM131.43 73V62.0909H134.456V73H131.43ZM132.95 60.6847C132.5 60.6847 132.114 60.5355 131.792 60.2372C131.475 59.9342 131.316 59.572 131.316 59.1506C131.316 58.7339 131.475 58.3764 131.792 58.0781C132.114 57.7751 132.5 57.6236 132.95 57.6236C133.4 57.6236 133.783 57.7751 134.1 58.0781C134.422 58.3764 134.583 58.7339 134.583 59.1506C134.583 59.572 134.422 59.9342 134.1 60.2372C133.783 60.5355 133.4 60.6847 132.95 60.6847ZM142.682 62.0909V64.3636H136.112V62.0909H142.682ZM137.604 59.4773H140.629V69.6477C140.629 69.9271 140.672 70.1449 140.757 70.3011C140.842 70.4527 140.961 70.5592 141.112 70.6207C141.268 70.6823 141.448 70.7131 141.652 70.7131C141.794 70.7131 141.936 70.7012 142.078 70.6776C142.22 70.6491 142.329 70.6278 142.405 70.6136L142.881 72.8651C142.729 72.9124 142.516 72.9669 142.241 73.0284C141.967 73.0947 141.633 73.1349 141.24 73.1491C140.511 73.1776 139.872 73.0805 139.322 72.858C138.778 72.6354 138.354 72.2898 138.051 71.821C137.748 71.3523 137.599 70.7604 137.604 70.0455V59.4773ZM150.519 62.0909V64.3636H143.786V62.0909H150.519ZM145.327 73V61.3026C145.327 60.5118 145.481 59.8561 145.789 59.3352C146.102 58.8144 146.528 58.4238 147.067 58.1634C147.607 57.9029 148.22 57.7727 148.907 57.7727C149.371 57.7727 149.795 57.8082 150.178 57.8793C150.567 57.9503 150.855 58.0142 151.045 58.071L150.505 60.3438C150.387 60.3059 150.24 60.2704 150.065 60.2372C149.894 60.2041 149.719 60.1875 149.539 60.1875C149.094 60.1875 148.784 60.2917 148.609 60.5C148.433 60.7036 148.346 60.9901 148.346 61.3594V73H145.327ZM152.368 73V62.0909H155.393V73H152.368ZM153.887 60.6847C153.438 60.6847 153.052 60.5355 152.73 60.2372C152.413 59.9342 152.254 59.572 152.254 59.1506C152.254 58.7339 152.413 58.3764 152.73 58.0781C153.052 57.7751 153.438 57.6236 153.887 57.6236C154.337 57.6236 154.721 57.7751 155.038 58.0781C155.36 58.3764 155.521 58.7339 155.521 59.1506C155.521 59.572 155.36 59.9342 155.038 60.2372C154.721 60.5355 154.337 60.6847 153.887 60.6847ZM160.842 66.6932V73H157.817V62.0909H160.7V64.0156H160.828C161.07 63.3812 161.474 62.8793 162.043 62.5099C162.611 62.1359 163.3 61.9489 164.109 61.9489C164.867 61.9489 165.527 62.1146 166.091 62.446C166.654 62.7775 167.092 63.2509 167.405 63.8665C167.717 64.4773 167.874 65.2064 167.874 66.054V73H164.848V66.5938C164.853 65.9261 164.682 65.4053 164.337 65.0312C163.991 64.6525 163.515 64.4631 162.909 64.4631C162.502 64.4631 162.142 64.5507 161.83 64.7259C161.522 64.901 161.28 65.1567 161.105 65.4929C160.935 65.8243 160.847 66.2244 160.842 66.6932ZM175.23 73.2131C174.108 73.2131 173.142 72.9858 172.332 72.5312C171.527 72.072 170.907 71.4233 170.471 70.5852C170.036 69.7424 169.818 68.7457 169.818 67.5952C169.818 66.473 170.036 65.4882 170.471 64.6406C170.907 63.7931 171.52 63.1326 172.311 62.6591C173.106 62.1856 174.039 61.9489 175.109 61.9489C175.829 61.9489 176.499 62.0649 177.119 62.2969C177.744 62.5241 178.288 62.8674 178.752 63.3267C179.221 63.786 179.586 64.3636 179.846 65.0597C180.107 65.7509 180.237 66.5606 180.237 67.4886V68.3196H171.025V66.4446H177.389C177.389 66.009 177.294 65.6231 177.105 65.2869C176.915 64.9508 176.653 64.688 176.316 64.4986C175.985 64.3045 175.599 64.2074 175.159 64.2074C174.699 64.2074 174.292 64.3139 173.937 64.527C173.587 64.7353 173.312 65.017 173.113 65.3722C172.914 65.7225 172.813 66.1132 172.808 66.544V68.3267C172.808 68.8665 172.907 69.3329 173.106 69.7259C173.31 70.1188 173.596 70.4219 173.966 70.6349C174.335 70.848 174.773 70.9545 175.279 70.9545C175.616 70.9545 175.923 70.9072 176.203 70.8125C176.482 70.7178 176.721 70.5758 176.92 70.3864C177.119 70.197 177.27 69.965 177.375 69.6903L180.173 69.875C180.031 70.5473 179.74 71.1345 179.299 71.6364C178.864 72.1335 178.3 72.5218 177.609 72.8011C176.922 73.0758 176.129 73.2131 175.23 73.2131ZM184.544 62.0909L186.547 65.9048L188.6 62.0909H191.703L188.543 67.5455L191.789 73H188.699L186.547 69.2287L184.431 73H181.306L184.544 67.5455L181.419 62.0909H184.544Z" fill="#60C49C"/>
<g filter="url(#filter0_d_1106_8012)">
<path opacity="0.2" d="M65.5 100C84.5538 100 100 84.5538 100 65.5C100 46.4462 84.5538 31 65.5 31C46.4462 31 31 46.4462 31 65.5C31 84.5538 46.4462 100 65.5 100Z" fill="#23B852"/>
<path fill-rule="evenodd" clip-rule="evenodd" d="M75.6294 48.9189C82.0133 67.6121 73.4321 79.0636 61.9686 79.3752C58.7708 79.4446 56.8201 78.9615 54.352 77.3184C54.7923 77.2541 55.2337 77.1929 55.6779 77.1061C64.0647 75.4151 72.568 69.243 73.0438 54.8489C70.8335 67.005 61.6916 75.0802 53.0388 73.1332C48.7759 65.7955 53.4101 57.4573 61.2794 54.4333L75.6294 48.9189Z" fill="#60C49C"/>
</g>
<defs>
<filter id="filter0_d_1106_8012" x="0" y="0" width="131" height="131" filterUnits="userSpaceOnUse" color-interpolation-filters="sRGB">
<feFlood flood-opacity="0" result="BackgroundImageFix"/>
<feColorMatrix in="SourceAlpha" type="matrix" values="0 0 0 0 0 0 0 0 0 0 0 0 0 0 0 0 0 0 127 0" result="hardAlpha"/>
<feOffset/>
<feGaussianBlur stdDeviation="15.5"/>
<feComposite in2="hardAlpha" operator="out"/>
<feColorMatrix type="matrix" values="0 0 0 0 0.376471 0 0 0 0 0.768627 0 0 0 0 0.611765 0 0 0 0.76 0"/>
<feBlend mode="normal" in2="BackgroundImageFix" result="effect1_dropShadow_1106_8012"/>
<feBlend mode="normal" in="SourceGraphic" in2="effect1_dropShadow_1106_8012" result="shape"/>
</filter>
</defs>
</svg>
