<svg width="161" height="62" viewBox="0 0 161 62" fill="none" xmlns="http://www.w3.org/2000/svg">
<path d="M90.4964 28.326H88.1058C88.0376 27.9339 87.9119 27.5866 87.7287 27.2841C87.5455 26.9773 87.3175 26.7173 87.0447 26.5043C86.772 26.2912 86.4609 26.1314 86.1115 26.0249C85.7663 25.9141 85.3935 25.8587 84.9929 25.8587C84.2813 25.8587 83.6506 26.0376 83.1009 26.3956C82.5511 26.7493 82.1207 27.2692 81.8097 27.9553C81.4986 28.6371 81.343 29.4702 81.343 30.4545C81.343 31.456 81.4986 32.2997 81.8097 32.9858C82.125 33.6676 82.5554 34.1832 83.1009 34.5327C83.6506 34.8778 84.2791 35.0504 84.9865 35.0504C85.3786 35.0504 85.745 34.9993 86.0859 34.897C86.4311 34.7905 86.7401 34.6349 87.0128 34.4304C87.2898 34.2259 87.522 33.9744 87.7095 33.6761C87.9013 33.3778 88.0334 33.0369 88.1058 32.6534L90.4964 32.6662C90.407 33.2884 90.2131 33.8722 89.9148 34.4176C89.6207 34.9631 89.2351 35.4446 88.7578 35.8622C88.2805 36.2756 87.7223 36.5994 87.0831 36.8338C86.4439 37.0639 85.7344 37.179 84.9545 37.179C83.804 37.179 82.777 36.9126 81.8736 36.38C80.9702 35.8473 80.2585 35.0781 79.7386 34.0724C79.2188 33.0668 78.9588 31.8608 78.9588 30.4545C78.9588 29.044 79.2209 27.8381 79.745 26.8366C80.2692 25.831 80.983 25.0618 81.8864 24.5291C82.7898 23.9964 83.8125 23.7301 84.9545 23.7301C85.6832 23.7301 86.3608 23.8324 86.9872 24.0369C87.6136 24.2415 88.1719 24.5419 88.6619 24.9382C89.152 25.3303 89.5547 25.8118 89.87 26.3828C90.1896 26.9496 90.3984 27.5973 90.4964 28.326ZM96.8485 37.1918C95.8897 37.1918 95.0588 36.9808 94.3556 36.5589C93.6525 36.1371 93.1071 35.5469 92.7193 34.7884C92.3358 34.0298 92.144 33.1435 92.144 32.1293C92.144 31.1151 92.3358 30.2266 92.7193 29.4638C93.1071 28.701 93.6525 28.1087 94.3556 27.6868C95.0588 27.2649 95.8897 27.054 96.8485 27.054C97.8074 27.054 98.6383 27.2649 99.3414 27.6868C100.045 28.1087 100.588 28.701 100.971 29.4638C101.359 30.2266 101.553 31.1151 101.553 32.1293C101.553 33.1435 101.359 34.0298 100.971 34.7884C100.588 35.5469 100.045 36.1371 99.3414 36.5589C98.6383 36.9808 97.8074 37.1918 96.8485 37.1918ZM96.8613 35.3381C97.3812 35.3381 97.8159 35.1953 98.1653 34.9098C98.5147 34.62 98.7747 34.2322 98.9451 33.7464C99.1199 33.2607 99.2072 32.7195 99.2072 32.1229C99.2072 31.522 99.1199 30.9787 98.9451 30.4929C98.7747 30.0028 98.5147 29.6129 98.1653 29.3232C97.8159 29.0334 97.3812 28.8885 96.8613 28.8885C96.3287 28.8885 95.8855 29.0334 95.5318 29.3232C95.1824 29.6129 94.9203 30.0028 94.7456 30.4929C94.5751 30.9787 94.4899 31.522 94.4899 32.1229C94.4899 32.7195 94.5751 33.2607 94.7456 33.7464C94.9203 34.2322 95.1824 34.62 95.5318 34.9098C95.8855 35.1953 96.3287 35.3381 96.8613 35.3381ZM103.517 37V27.1818H105.831V37H103.517ZM104.68 25.7884C104.314 25.7884 103.999 25.6669 103.734 25.424C103.47 25.1768 103.338 24.8807 103.338 24.5355C103.338 24.1861 103.47 23.8899 103.734 23.647C103.999 23.3999 104.314 23.2763 104.68 23.2763C105.051 23.2763 105.366 23.3999 105.626 23.647C105.891 23.8899 106.023 24.1861 106.023 24.5355C106.023 24.8807 105.891 25.1768 105.626 25.424C105.366 25.6669 105.051 25.7884 104.68 25.7884ZM110.524 31.2472V37H108.21V27.1818H110.422V28.8501H110.537C110.763 28.3004 111.123 27.8636 111.617 27.5398C112.116 27.2159 112.732 27.054 113.465 27.054C114.142 27.054 114.732 27.1989 115.235 27.4886C115.742 27.7784 116.134 28.1982 116.411 28.7479C116.693 29.2976 116.831 29.9645 116.827 30.7486V37H114.513V31.1065C114.513 30.4503 114.343 29.9368 114.002 29.5661C113.665 29.1953 113.198 29.0099 112.602 29.0099C112.197 29.0099 111.837 29.0994 111.521 29.2784C111.21 29.4531 110.965 29.7067 110.786 30.0391C110.612 30.3714 110.524 30.7741 110.524 31.2472ZM119.281 37V23.9091H121.595V28.8054H121.691C121.811 28.5668 121.979 28.3132 122.196 28.0447C122.414 27.772 122.708 27.5398 123.078 27.348C123.449 27.152 123.922 27.054 124.497 27.054C125.256 27.054 125.94 27.2479 126.549 27.6357C127.163 28.0192 127.649 28.5881 128.007 29.3423C128.369 30.0923 128.55 31.0128 128.55 32.1037C128.55 33.1818 128.373 34.098 128.019 34.8523C127.666 35.6065 127.184 36.1818 126.575 36.5781C125.965 36.9744 125.275 37.1726 124.504 37.1726C123.941 37.1726 123.475 37.0788 123.104 36.8913C122.733 36.7038 122.435 36.478 122.209 36.2138C121.987 35.9453 121.815 35.6918 121.691 35.4531H121.557V37H119.281ZM121.551 32.0909C121.551 32.7259 121.64 33.282 121.819 33.7592C122.002 34.2365 122.264 34.6094 122.605 34.8778C122.95 35.142 123.368 35.2741 123.858 35.2741C124.369 35.2741 124.798 35.1378 125.143 34.8651C125.488 34.5881 125.748 34.2109 125.923 33.7337C126.102 33.2521 126.191 32.7045 126.191 32.0909C126.191 31.4815 126.104 30.9403 125.929 30.4673C125.754 29.9943 125.494 29.6236 125.149 29.3551C124.804 29.0866 124.374 28.9524 123.858 28.9524C123.364 28.9524 122.944 29.0824 122.599 29.3423C122.254 29.6023 121.992 29.9666 121.813 30.4354C121.638 30.9041 121.551 31.456 121.551 32.0909ZM133.342 37.1982C132.72 37.1982 132.16 37.0874 131.661 36.8658C131.167 36.6399 130.775 36.3075 130.485 35.8686C130.2 35.4297 130.057 34.8885 130.057 34.245C130.057 33.6911 130.159 33.233 130.364 32.8707C130.568 32.5085 130.847 32.2188 131.201 32.0014C131.555 31.7841 131.953 31.62 132.396 31.5092C132.844 31.3942 133.306 31.3111 133.783 31.2599C134.359 31.2003 134.825 31.147 135.183 31.1001C135.541 31.049 135.801 30.9723 135.963 30.87C136.129 30.7635 136.212 30.5994 136.212 30.3778V30.3395C136.212 29.858 136.07 29.4851 135.784 29.2209C135.499 28.9567 135.087 28.8246 134.55 28.8246C133.984 28.8246 133.534 28.9482 133.202 29.1953C132.874 29.4425 132.652 29.7344 132.537 30.071L130.376 29.7642C130.547 29.1676 130.828 28.669 131.22 28.2685C131.612 27.8636 132.092 27.5611 132.658 27.3608C133.225 27.1562 133.852 27.054 134.538 27.054C135.011 27.054 135.482 27.1094 135.95 27.2202C136.419 27.331 136.847 27.5142 137.235 27.7699C137.623 28.0213 137.934 28.3643 138.168 28.799C138.407 29.2337 138.526 29.777 138.526 30.429V37H136.302V35.6513H136.225C136.085 35.924 135.886 36.1797 135.631 36.4183C135.379 36.6527 135.062 36.8423 134.678 36.9872C134.299 37.1278 133.854 37.1982 133.342 37.1982ZM133.943 35.4979C134.408 35.4979 134.81 35.4062 135.151 35.223C135.492 35.0355 135.754 34.7884 135.938 34.4815C136.125 34.1747 136.219 33.8402 136.219 33.478V32.321C136.146 32.3807 136.023 32.4361 135.848 32.4872C135.678 32.5384 135.486 32.5831 135.273 32.6214C135.06 32.6598 134.849 32.6939 134.64 32.7237C134.431 32.7536 134.25 32.7791 134.097 32.8004C133.751 32.8473 133.442 32.924 133.17 33.0305C132.897 33.1371 132.682 33.2862 132.524 33.478C132.366 33.6655 132.288 33.9084 132.288 34.2067C132.288 34.6328 132.443 34.9545 132.754 35.1719C133.065 35.3892 133.462 35.4979 133.943 35.4979ZM148.613 29.777L146.504 30.0071C146.444 29.794 146.339 29.5938 146.19 29.4062C146.045 29.2188 145.849 29.0675 145.602 28.9524C145.355 28.8374 145.053 28.7798 144.695 28.7798C144.213 28.7798 143.808 28.8842 143.48 29.093C143.156 29.3018 142.996 29.5724 143.001 29.9048C142.996 30.1903 143.101 30.4226 143.314 30.6016C143.531 30.7805 143.889 30.9276 144.388 31.0426L146.062 31.4006C146.991 31.6009 147.682 31.9183 148.134 32.353C148.589 32.7876 148.82 33.3565 148.824 34.0597C148.82 34.6776 148.638 35.223 148.281 35.696C147.927 36.1648 147.435 36.5312 146.804 36.7955C146.173 37.0597 145.449 37.1918 144.631 37.1918C143.429 37.1918 142.462 36.9403 141.729 36.4375C140.996 35.9304 140.559 35.2251 140.418 34.3217L142.675 34.1044C142.777 34.5476 142.994 34.8821 143.327 35.108C143.659 35.3338 144.092 35.4467 144.624 35.4467C145.174 35.4467 145.615 35.3338 145.947 35.108C146.284 34.8821 146.452 34.603 146.452 34.2706C146.452 33.9893 146.344 33.7571 146.126 33.5739C145.913 33.3906 145.581 33.25 145.129 33.152L143.455 32.8004C142.513 32.6044 141.816 32.2741 141.364 31.8097C140.913 31.3409 140.689 30.7486 140.693 30.0327C140.689 29.4276 140.853 28.9034 141.185 28.4602C141.522 28.0128 141.989 27.6676 142.585 27.4247C143.186 27.1776 143.879 27.054 144.663 27.054C145.813 27.054 146.719 27.299 147.379 27.7891C148.044 28.2791 148.455 28.9418 148.613 29.777ZM155.078 37.1918C154.094 37.1918 153.244 36.9872 152.528 36.5781C151.816 36.1648 151.269 35.581 150.885 34.8267C150.502 34.0682 150.31 33.1754 150.31 32.1484C150.31 31.1385 150.502 30.2521 150.885 29.4893C151.273 28.7223 151.814 28.1257 152.509 27.6996C153.203 27.2692 154.02 27.054 154.957 27.054C155.562 27.054 156.133 27.152 156.67 27.348C157.211 27.5398 157.689 27.8381 158.102 28.2429C158.52 28.6477 158.848 29.1634 159.086 29.7898C159.325 30.4119 159.444 31.1534 159.444 32.0142V32.7237H151.397V31.1641H157.226C157.222 30.7209 157.126 30.3267 156.939 29.9815C156.751 29.6321 156.489 29.3572 156.152 29.157C155.82 28.9567 155.432 28.8565 154.989 28.8565C154.516 28.8565 154.1 28.9716 153.743 29.2017C153.385 29.4276 153.105 29.7259 152.905 30.0966C152.709 30.4631 152.609 30.8658 152.605 31.3047V32.6662C152.605 33.2372 152.709 33.7273 152.918 34.1364C153.127 34.5412 153.419 34.8523 153.794 35.0696C154.169 35.2827 154.608 35.3892 155.11 35.3892C155.447 35.3892 155.752 35.3423 156.025 35.2486C156.297 35.1506 156.534 35.0078 156.734 34.8203C156.934 34.6328 157.086 34.4006 157.188 34.1236L159.348 34.3665C159.212 34.9375 158.952 35.4361 158.569 35.8622C158.189 36.2841 157.703 36.6122 157.111 36.8466C156.519 37.0767 155.841 37.1918 155.078 37.1918Z" fill="white"/>
<path opacity="0.2" d="M31 62C48.1208 62 62 48.1208 62 31C62 13.8792 48.1208 0 31 0C13.8792 0 0 13.8792 0 31C0 48.1208 13.8792 62 31 62Z" fill="#2254F3"/>
<path d="M49.5214 35.0447C49.4057 35.528 49.3093 35.9688 49.1935 36.4045C47.6245 42.3089 42.0523 48.3147 34.8486 49.6234C33.0911 49.9427 31.3222 50.0958 29.5619 49.9362C22.7141 49.3164 17.5841 45.9834 14.2267 39.9719C13.046 37.8578 12.3312 35.5711 12.1047 33.1665C11.5122 26.8889 13.4278 21.498 18.0113 17.1267C20.6877 14.5739 23.8905 12.9977 27.5211 12.3124C29.1721 12.001 30.839 11.9299 32.5209 12.0658C36.9109 12.4196 40.704 14.1231 43.9205 17.1001C46.4128 19.4069 48.2407 22.1495 49.1144 25.4702C49.2086 25.8268 49.2338 26.2022 49.3359 26.556C49.4387 26.9126 49.2899 26.9608 48.9864 26.9565C48.1358 26.9436 47.2844 26.9522 46.4337 26.9522C44.6719 26.9522 42.9102 26.9429 41.1484 26.9608C40.8119 26.9644 40.64 26.8573 40.4941 26.5567C39.2436 23.9881 37.3114 22.153 34.6163 21.1535C33.3931 20.6998 32.1254 20.4467 30.8231 20.4869C25.6515 20.6459 21.6117 24.2147 20.6906 28.8786C19.5436 34.6859 23.1973 40.1617 28.9456 41.2964C32.3857 41.976 35.4677 41.0591 38.0916 38.707C39.148 37.76 39.9519 36.6167 40.5854 35.3518C40.6868 35.149 40.7839 35.0066 41.06 35.0081C43.7688 35.0196 46.4768 35.0145 49.1856 35.016C49.2662 35.016 49.3481 35.0296 49.5214 35.0447Z" fill="white"/>
</svg>
