<svg width="11" height="15" viewBox="0 0 11 15" fill="none" xmlns="http://www.w3.org/2000/svg">
<path d="M5.83356 0.833252C6.01766 0.833252 6.16689 0.98249 6.16689 1.16659V11.9466L9.12689 8.97992C9.18948 8.91681 9.27468 8.88132 9.36356 8.88132C9.45244 8.88132 9.53764 8.91681 9.60023 8.97992L10.0669 9.45325C10.13 9.51584 10.1655 9.60104 10.1655 9.68992C10.1655 9.7788 10.13 9.864 10.0669 9.92659L5.98023 14.0199C5.88655 14.1137 5.75946 14.1665 5.62689 14.1666H5.37356C5.24128 14.165 5.11471 14.1125 5.02023 14.0199L0.93356 9.92659C0.870456 9.864 0.834961 9.7788 0.834961 9.68992C0.834961 9.60104 0.870456 9.51584 0.93356 9.45325L1.40689 8.97992C1.46834 8.91721 1.55243 8.88187 1.64023 8.88187C1.72802 8.88187 1.81212 8.91721 1.87356 8.97992L4.83356 11.9466V1.16659C4.83356 0.98249 4.9828 0.833252 5.16689 0.833252H5.83356Z" fill="#7367F0"/>
</svg>
