<svg width="130" height="62" viewBox="0 0 130 62" fill="none" xmlns="http://www.w3.org/2000/svg">
<path d="M79.2912 37V23.9091H81.6626V29.451H87.7287V23.9091H90.1065V37H87.7287V31.4389H81.6626V37H79.2912ZM98.8413 32.8707V27.1818H101.155V37H98.9116V35.255H98.8093C98.5877 35.8047 98.2234 36.2543 97.7163 36.6037C97.2134 36.9531 96.5934 37.1278 95.8562 37.1278C95.2127 37.1278 94.6438 36.9851 94.1495 36.6996C93.6594 36.4098 93.2759 35.9901 92.9989 35.4403C92.7219 34.8864 92.5835 34.2173 92.5835 33.4332V27.1818H94.8974V33.0753C94.8974 33.6974 95.0678 34.1918 95.4087 34.5582C95.7496 34.9247 96.1971 35.108 96.7511 35.108C97.092 35.108 97.4222 35.0249 97.7418 34.8587C98.0614 34.6925 98.3235 34.4453 98.5281 34.1172C98.7369 33.7848 98.8413 33.3693 98.8413 32.8707ZM107.817 37.1918C106.858 37.1918 106.028 36.9808 105.324 36.5589C104.621 36.1371 104.076 35.5469 103.688 34.7884C103.305 34.0298 103.113 33.1435 103.113 32.1293C103.113 31.1151 103.305 30.2266 103.688 29.4638C104.076 28.701 104.621 28.1087 105.324 27.6868C106.028 27.2649 106.858 27.054 107.817 27.054C108.776 27.054 109.607 27.2649 110.31 27.6868C111.013 28.1087 111.557 28.701 111.94 29.4638C112.328 30.2266 112.522 31.1151 112.522 32.1293C112.522 33.1435 112.328 34.0298 111.94 34.7884C111.557 35.5469 111.013 36.1371 110.31 36.5589C109.607 36.9808 108.776 37.1918 107.817 37.1918ZM107.83 35.3381C108.35 35.3381 108.785 35.1953 109.134 34.9098C109.483 34.62 109.743 34.2322 109.914 33.7464C110.089 33.2607 110.176 32.7195 110.176 32.1229C110.176 31.522 110.089 30.9787 109.914 30.4929C109.743 30.0028 109.483 29.6129 109.134 29.3232C108.785 29.0334 108.35 28.8885 107.83 28.8885C107.297 28.8885 106.854 29.0334 106.501 29.3232C106.151 29.6129 105.889 30.0028 105.714 30.4929C105.544 30.9787 105.459 31.522 105.459 32.1229C105.459 32.7195 105.544 33.2607 105.714 33.7464C105.889 34.2322 106.151 34.62 106.501 34.9098C106.854 35.1953 107.297 35.3381 107.83 35.3381ZM114.588 37V23.9091H116.902V28.8054H116.998C117.117 28.5668 117.286 28.3132 117.503 28.0447C117.72 27.772 118.014 27.5398 118.385 27.348C118.756 27.152 119.229 27.054 119.804 27.054C120.563 27.054 121.246 27.2479 121.856 27.6357C122.469 28.0192 122.955 28.5881 123.313 29.3423C123.675 30.0923 123.857 31.0128 123.857 32.1037C123.857 33.1818 123.68 34.098 123.326 34.8523C122.972 35.6065 122.491 36.1818 121.881 36.5781C121.272 36.9744 120.582 37.1726 119.81 37.1726C119.248 37.1726 118.781 37.0788 118.411 36.8913C118.04 36.7038 117.741 36.478 117.516 36.2138C117.294 35.9453 117.121 35.6918 116.998 35.4531H116.864V37H114.588ZM116.857 32.0909C116.857 32.7259 116.947 33.282 117.126 33.7592C117.309 34.2365 117.571 34.6094 117.912 34.8778C118.257 35.142 118.675 35.2741 119.165 35.2741C119.676 35.2741 120.104 35.1378 120.45 34.8651C120.795 34.5881 121.055 34.2109 121.229 33.7337C121.408 33.2521 121.498 32.7045 121.498 32.0909C121.498 31.4815 121.411 30.9403 121.236 30.4673C121.061 29.9943 120.801 29.6236 120.456 29.3551C120.111 29.0866 119.68 28.9524 119.165 28.9524C118.67 28.9524 118.251 29.0824 117.906 29.3423C117.56 29.6023 117.298 29.9666 117.119 30.4354C116.945 30.9041 116.857 31.456 116.857 32.0909ZM125.824 37V27.1818H128.138V37H125.824ZM126.987 25.7884C126.621 25.7884 126.305 25.6669 126.041 25.424C125.777 25.1768 125.645 24.8807 125.645 24.5355C125.645 24.1861 125.777 23.8899 126.041 23.647C126.305 23.3999 126.621 23.2763 126.987 23.2763C127.358 23.2763 127.673 23.3999 127.933 23.647C128.197 23.8899 128.329 24.1861 128.329 24.5355C128.329 24.8807 128.197 25.1768 127.933 25.424C127.673 25.6669 127.358 25.7884 126.987 25.7884Z" fill="white"/>
<path opacity="0.2" d="M31 62C48.1208 62 62 48.1208 62 31C62 13.8792 48.1208 0 31 0C13.8792 0 0 13.8792 0 31C0 48.1208 13.8792 62 31 62Z" fill="#393E9D"/>
<g clip-path="url(#clip0_1106_8066)">
<path d="M34.0953 24.4713C34.0953 19.605 31.7495 15.4124 29.9527 14.0399C29.9527 14.0399 29.8279 13.965 29.8279 14.1647C29.6782 23.5729 24.9117 26.1433 22.2664 29.5622C16.2022 37.4981 21.8422 46.1826 27.582 47.7797C30.8012 48.6781 26.8333 46.1826 26.3342 40.9419C25.7352 34.5783 34.0953 29.7369 34.0953 24.4713Z" fill="#282E5B"/>
<path d="M37.2386 27.6923C37.2136 27.6673 37.1637 27.6673 37.1138 27.6923C37.1138 27.6923 37.1138 27.6923 37.0888 27.7173C36.989 28.8902 35.6913 31.4356 34.0692 33.7565C28.5541 41.6424 31.6984 45.4357 33.4703 47.482C34.4935 48.6799 33.4703 47.482 36.0407 46.2592C36.2403 46.1594 41.0318 43.6139 41.5559 37.8492C42.0799 32.2342 38.5113 28.7155 37.2386 27.6923Z" fill="#059BDC"/>
</g>
<defs>
<clipPath id="clip0_1106_8066">
<rect width="23.3162" height="38.1538" fill="white" transform="translate(19.0767 11.9219)"/>
</clipPath>
</defs>
</svg>
