<svg width="20" height="20" viewBox="0 0 20 20" fill="none" xmlns="http://www.w3.org/2000/svg">
<path fill-rule="evenodd" clip-rule="evenodd" d="M9.5 3H10.5C10.7761 3 11 2.77614 11 2.5V0.5C11 0.223858 10.7761 0 10.5 0H9.5C9.22386 0 9 0.223858 9 0.5V2.5C9 2.77614 9.22386 3 9.5 3ZM5 10C5 7.23858 7.23858 5 10 5C12.7614 5 15 7.23858 15 10C15 12.7614 12.7614 15 10 15C7.23858 15 5 12.7614 5 10ZM7 10C7 11.6569 8.34315 13 10 13V7C8.34315 7 7 8.34315 7 10ZM9 17.5C9 17.2239 9.22386 17 9.5 17H10.5C10.7761 17 11 17.2239 11 17.5V19.5C11 19.7761 10.7761 20 10.5 20H9.5C9.22386 20 9 19.7761 9 19.5V17.5ZM19.5 9H17.5C17.2239 9 17 9.22386 17 9.5V10.5C17 10.7761 17.2239 11 17.5 11H19.5C19.7761 11 20 10.7761 20 10.5V9.5C20 9.22386 19.7761 9 19.5 9ZM3 9.5V10.5C3 10.7761 2.77614 11 2.5 11H0.5C0.223858 11 0 10.7761 0 10.5V9.5C0 9.22386 0.223858 9 0.5 9H2.5C2.77614 9 3 9.22386 3 9.5ZM15.3 5.4C15.3939 5.49466 15.5217 5.5479 15.655 5.5479C15.7883 5.5479 15.9161 5.49466 16.01 5.4L17.42 4C17.5147 3.90612 17.5679 3.77832 17.5679 3.645C17.5679 3.51168 17.5147 3.38388 17.42 3.29L16.72 2.59C16.6261 2.49534 16.4983 2.4421 16.365 2.4421C16.2317 2.4421 16.1039 2.49534 16.01 2.59L14.6 4C14.5053 4.09388 14.4521 4.22168 14.4521 4.355C14.4521 4.48832 14.5053 4.61612 14.6 4.71L15.3 5.4ZM4.345 14.4521C4.47832 14.4521 4.60612 14.5053 4.7 14.6L5.4 15.29C5.49466 15.3839 5.5479 15.5117 5.5479 15.645C5.5479 15.7783 5.49466 15.9061 5.4 16L3.99 17.41C3.89612 17.5047 3.76832 17.5579 3.635 17.5579C3.50168 17.5579 3.37388 17.5047 3.28 17.41L2.58 16.71C2.48534 16.6161 2.4321 16.4883 2.4321 16.355C2.4321 16.2217 2.48534 16.0939 2.58 16L3.99 14.6C4.08388 14.5053 4.21168 14.4521 4.345 14.4521ZM16 14.6C15.9061 14.5053 15.7783 14.4521 15.645 14.4521C15.5117 14.4521 15.3839 14.5053 15.29 14.6L14.59 15.3C14.4953 15.3939 14.4421 15.5217 14.4421 15.655C14.4421 15.7883 14.4953 15.9161 14.59 16.01L16 17.42C16.0939 17.5147 16.2217 17.5679 16.355 17.5679C16.4883 17.5679 16.6161 17.5147 16.71 17.42L17.41 16.72C17.5047 16.6261 17.5579 16.4983 17.5579 16.365C17.5579 16.2317 17.5047 16.1039 17.41 16.01L16 14.6ZM4.355 5.5479C4.22168 5.5479 4.09388 5.49466 4 5.4L2.59 3.99C2.49534 3.89612 2.4421 3.76832 2.4421 3.635C2.4421 3.50168 2.49534 3.37388 2.59 3.28L3.29 2.58C3.38388 2.48534 3.51168 2.4321 3.645 2.4321C3.77832 2.4321 3.90612 2.48534 4 2.58L5.4 4C5.59338 4.19169 5.59782 4.50287 5.41 4.7L4.71 5.4C4.61612 5.49466 4.48832 5.5479 4.355 5.5479Z" fill="white"/>
</svg>
