<svg width="16" height="21" viewBox="0 0 16 21" fill="none" xmlns="http://www.w3.org/2000/svg">
<path d="M7.88429 0.924805C3.95631 0.924805 0.0283203 2.2996 0.0283203 4.85279V9.95917C0.0283203 11.1376 3.07251 12.807 7.88429 12.807C12.6961 12.807 15.7403 11.1376 15.7403 9.95917V4.85279C15.7403 2.2996 11.8123 0.924805 7.88429 0.924805ZM3.95631 10.2538C3.36711 10.2538 2.97431 9.86097 2.97431 9.27177C2.97431 8.68258 3.36711 8.28978 3.95631 8.28978C4.5455 8.28978 4.9383 8.68258 4.9383 9.27177C4.9383 9.86097 4.5455 10.2538 3.95631 10.2538ZM7.88429 6.81678C4.25091 6.81678 1.99231 5.54019 1.99231 4.85279C1.99231 4.16539 4.25091 2.8888 7.88429 2.8888C11.5177 2.8888 13.7763 4.16539 13.7763 4.85279C13.7763 5.54019 11.5177 6.81678 7.88429 6.81678ZM7.88429 14.6728C5.1347 14.771 2.38511 14.1818 0.0283203 12.807V16.6367C0.0283203 19.1899 3.95631 20.5647 7.88429 20.5647C11.8123 20.5647 15.7403 19.1899 15.7403 16.6367V12.807C13.3835 14.1818 10.6339 14.771 7.88429 14.6728ZM3.95631 18.1097C3.36711 18.1097 2.97431 17.7169 2.97431 17.1277C2.97431 16.5385 3.36711 16.1457 3.95631 16.1457C4.5455 16.1457 4.9383 16.5385 4.9383 17.1277C4.9383 17.7169 4.5455 18.1097 3.95631 18.1097Z" fill="#8AFBB9"/>
</svg>
