<svg width="21" height="21" viewBox="0 0 21 21" fill="none" xmlns="http://www.w3.org/2000/svg">
<path fill-rule="evenodd" clip-rule="evenodd" d="M8.69364 20.5638C8.7127 20.4705 8.72252 20.3737 8.72252 20.2749V19.6973C8.72252 15.8689 5.61913 12.7655 1.79078 12.7655H1.21314C1.11436 12.7655 1.01761 12.7754 0.924316 12.7944V3.23441C0.924316 2.6216 1.16775 2.0339 1.60107 1.60058C2.03439 1.16726 2.62209 0.923828 3.2349 0.923828L18.2537 0.923828C18.8665 0.923828 19.4542 1.16726 19.8875 1.60058C20.3208 2.0339 20.5642 2.6216 20.5642 3.23441V18.2532C20.5642 18.866 20.3208 19.4537 19.8875 19.887C19.4542 20.3203 18.8665 20.5638 18.2537 20.5638H8.69364ZM1.79078 20.5638C1.56098 20.5638 1.34059 20.4725 1.1781 20.31C1.0156 20.1475 0.924316 19.9271 0.924316 19.6973C0.924316 19.4675 1.0156 19.2471 1.1781 19.0846C1.34059 18.9221 1.56098 18.8308 1.79078 18.8308C2.02059 18.8308 2.24097 18.9221 2.40347 19.0846C2.56596 19.2471 2.65725 19.4675 2.65725 19.6973C2.65725 19.9271 2.56596 20.1475 2.40347 20.31C2.24097 20.4725 2.02059 20.5638 1.79078 20.5638ZM1.21314 17.3867C1.13654 17.3867 1.06308 17.3563 1.00891 17.3021C0.954746 17.2479 0.924316 17.1745 0.924316 17.0979V16.5202C0.924316 16.4436 0.954746 16.3702 1.00891 16.316C1.06308 16.2618 1.13654 16.2314 1.21314 16.2314H1.79078C3.70481 16.2314 5.25665 17.7833 5.25665 19.6973V20.2749C5.25665 20.3515 5.22622 20.425 5.17206 20.4792C5.11789 20.5333 5.04443 20.5638 4.96783 20.5638H4.39019C4.31359 20.5638 4.24012 20.5333 4.18596 20.4792C4.13179 20.425 4.10136 20.3515 4.10136 20.2749V19.6973C4.10136 19.0845 3.85793 18.4968 3.42461 18.0635C2.99129 17.6301 2.40359 17.3867 1.79078 17.3867H1.21314ZM1.21314 15.0761C1.13654 15.0761 1.06308 15.0457 1.00891 14.9915C0.954746 14.9374 0.924316 14.8639 0.924316 14.7873V14.2097C0.924316 14.1331 0.954746 14.0596 1.00891 14.0054C1.06308 13.9513 1.13654 13.9208 1.21314 13.9208H1.79078C4.98112 13.9208 7.56723 16.507 7.56723 19.6973V20.2749C7.56723 20.3515 7.5368 20.425 7.48264 20.4792C7.42847 20.5333 7.35501 20.5638 7.27841 20.5638H6.70077C6.62417 20.5638 6.5507 20.5333 6.49654 20.4792C6.44237 20.425 6.41194 20.3515 6.41194 20.2749V19.6973C6.41194 17.145 4.34311 15.0761 1.79078 15.0761H1.21314Z" fill="#059BDC"/>
</svg>
