<svg width="20" height="21" viewBox="0 0 20 21" fill="none" xmlns="http://www.w3.org/2000/svg">
<path d="M10.6555 0.925157C11.1956 0.915338 11.7072 1.11075 12.0892 1.48489C12.4732 1.84724 12.6784 2.34903 12.6784 2.87929C12.6784 3.95947 13.572 4.83441 14.6826 4.83441C15.0254 4.83441 15.369 4.73523 15.6744 4.5683C16.626 4.05669 17.8142 4.38172 18.3543 5.29496L19.023 6.44388C19.1899 6.73847 19.2871 7.07234 19.2871 7.41604C19.2871 8.11324 18.9051 8.76233 18.2865 9.10504C17.9811 9.27198 17.7258 9.52729 17.55 9.82287C17.0286 10.7449 17.3536 11.9125 18.2865 12.4447C19.2282 12.9839 19.5523 14.1632 19.023 15.0951L18.3543 16.2057C18.0007 16.8136 17.3428 17.1877 16.6358 17.1877C16.2823 17.1877 15.9288 17.0983 15.6352 16.9216C15.3199 16.7547 14.9772 16.6565 14.6326 16.6565C14.1023 16.6565 13.5917 16.8637 13.2195 17.2358C12.8355 17.6001 12.6293 18.1 12.6293 18.6204C12.6293 19.6908 11.7367 20.5647 10.6261 20.5647H9.28176C8.75051 20.5647 8.2497 20.3487 7.88637 19.9854C7.51321 19.6122 7.3178 19.1212 7.3178 18.6106C7.3178 17.5304 6.43304 16.6565 5.32438 16.6565C4.96007 16.6565 4.60656 16.7547 4.30214 16.9422C3.84061 17.1965 3.29071 17.2653 2.78008 17.1376C2.26945 17.0002 1.82756 16.6663 1.56242 16.2244L0.934938 15.1147C0.639362 14.6542 0.550984 14.1033 0.689443 13.5829C0.825938 13.0624 1.18043 12.6205 1.66062 12.3554C1.96602 12.1885 2.22035 11.943 2.3971 11.6385C2.90872 10.7155 2.58368 9.55675 1.66062 9.01666C0.727741 8.48639 0.403688 7.31784 0.934938 6.39478L1.56242 5.29496C1.82756 4.83441 2.26945 4.49956 2.7899 4.36208C3.31133 4.22461 3.86025 4.30218 4.32178 4.5683C4.63602 4.73523 4.97971 4.82361 5.32438 4.82361C5.85465 4.82361 6.3643 4.6174 6.73745 4.25407C7.1106 3.89073 7.3178 3.38992 7.3178 2.87929C7.3178 1.79912 8.21042 0.925157 9.32006 0.925157H10.6555ZM11.0493 8.27134C10.0182 7.84811 8.82907 8.07396 8.03366 8.84973C7.24808 9.61567 7.00258 10.7842 7.43466 11.7868C7.85789 12.7973 8.85853 13.4552 9.97798 13.4552H9.98878C10.7253 13.465 11.4127 13.1812 11.9321 12.6696C12.4526 12.1688 12.7472 11.4814 12.7472 10.7646C12.757 9.67459 12.0794 8.68279 11.0493 8.27134Z" fill="#F16B5C"/>
</svg>
