<svg width="113" height="62" viewBox="0 0 113 62" fill="none" xmlns="http://www.w3.org/2000/svg">
<path d="M91.6761 30.4545C91.6761 31.8651 91.4119 33.0732 90.8835 34.0788C90.3594 35.0803 89.6435 35.8473 88.7358 36.38C87.8324 36.9126 86.8075 37.179 85.6612 37.179C84.5149 37.179 83.4879 36.9126 82.5803 36.38C81.6768 35.843 80.9609 35.0739 80.4325 34.0724C79.9084 33.0668 79.6463 31.8608 79.6463 30.4545C79.6463 29.044 79.9084 27.8381 80.4325 26.8366C80.9609 25.831 81.6768 25.0618 82.5803 24.5291C83.4879 23.9964 84.5149 23.7301 85.6612 23.7301C86.8075 23.7301 87.8324 23.9964 88.7358 24.5291C89.6435 25.0618 90.3594 25.831 90.8835 26.8366C91.4119 27.8381 91.6761 29.044 91.6761 30.4545ZM89.2919 30.4545C89.2919 29.4616 89.1364 28.6243 88.8253 27.9425C88.5185 27.2564 88.0923 26.7386 87.5469 26.3892C87.0014 26.0355 86.3729 25.8587 85.6612 25.8587C84.9496 25.8587 84.321 26.0355 83.7756 26.3892C83.2301 26.7386 82.8018 27.2564 82.4908 27.9425C82.1839 28.6243 82.0305 29.4616 82.0305 30.4545C82.0305 31.4474 82.1839 32.2869 82.4908 32.973C82.8018 33.6548 83.2301 34.1726 83.7756 34.5263C84.321 34.8757 84.9496 35.0504 85.6612 35.0504C86.3729 35.0504 87.0014 34.8757 87.5469 34.5263C88.0923 34.1726 88.5185 33.6548 88.8253 32.973C89.1364 32.2869 89.2919 31.4474 89.2919 30.4545ZM95.9252 33.919L95.9189 31.1257H96.2896L99.818 27.1818H102.522L98.1816 32.0142H97.7022L95.9252 33.919ZM93.8159 37V23.9091H96.1298V37H93.8159ZM99.9778 37L96.7818 32.532L98.3414 30.902L102.746 37H99.9778ZM105.956 27.1818L107.938 30.8061L109.951 27.1818H112.399L109.44 32.0909L112.45 37H110.015L107.938 33.4652L105.879 37H103.425L106.416 32.0909L103.501 27.1818H105.956Z" fill="white"/>
<path opacity="0.2" d="M31 62C48.1208 62 62 48.1208 62 31C62 13.8792 48.1208 0 31 0C13.8792 0 0 13.8792 0 31C0 48.1208 13.8792 62 31 62Z" fill="#454545"/>
<path d="M42.3215 25.3577C40.845 25.3577 39.3678 25.3553 37.8913 25.3592C36.9687 25.3616 36.6601 25.0625 36.6593 24.128C36.6569 21.1608 36.6577 18.1936 36.6585 15.2264C36.6593 14.3386 36.9861 14.0063 37.8762 14.0039C39.894 13.9992 41.9117 14.0023 43.9294 14.0023C44.8923 14.0023 45.8545 13.9984 46.8174 14.0039C47.7021 14.0087 48.0376 14.3442 48.0384 15.2296C48.0407 18.1968 48.0415 21.1632 48.0376 24.1304C48.036 25.0499 47.7171 25.3569 46.7913 25.3569C45.3014 25.3577 43.8115 25.3569 42.3215 25.3577Z" fill="white"/>
<path d="M42.3405 36.672C43.7774 36.672 45.2151 36.672 46.652 36.672C46.7707 36.672 46.8894 36.6704 47.0081 36.6791C47.6735 36.7266 47.9956 37.0328 48.028 37.6967C48.051 38.1698 48.0264 38.6454 48.0264 39.1201C48.0296 41.6514 48.0367 44.1834 48.0367 46.7146C48.0367 46.9235 48.0146 47.1356 47.9742 47.3405C47.8998 47.7219 47.6474 47.9418 47.27 47.9838C46.944 48.0202 46.6132 48.0241 46.2841 48.0241C43.5693 48.0273 40.8537 48.0257 38.1389 48.0257C38.0067 48.0257 37.8746 48.0305 37.7433 48.0218C36.9599 47.9735 36.664 47.6665 36.66 46.8713C36.6537 45.5792 36.6584 44.287 36.6584 42.9949C36.6584 41.308 36.6577 39.6202 36.6592 37.9332C36.66 36.9798 36.9647 36.672 37.911 36.672C38.6492 36.672 39.3875 36.6815 40.1257 36.6839C40.864 36.6862 41.6022 36.6846 42.3412 36.6846C42.3405 36.6815 42.3405 36.6767 42.3405 36.672Z" fill="white"/>
<path d="M19.7181 25.365C18.2163 25.365 16.7137 25.3658 15.2119 25.365C14.3423 25.3642 14.0044 25.0398 14.0037 24.1789C14.0005 21.1872 13.9997 18.1954 14.0037 15.2037C14.0044 14.3428 14.3376 14.0057 15.2048 14.0042C18.1957 13.9986 21.1867 13.9986 24.1776 14.0042C25.0575 14.0057 25.3645 14.3396 25.3677 15.2963C25.3748 17.4319 25.37 19.5667 25.37 21.7023C25.37 22.5062 25.3772 23.3101 25.3685 24.114C25.3582 25.077 25.0678 25.3563 24.1064 25.3563C22.6434 25.3563 21.1811 25.3563 19.7181 25.3563C19.7181 25.3595 19.7181 25.3626 19.7181 25.365Z" fill="white"/>
<path d="M14.0019 42.378C14.0019 40.8754 13.9963 39.372 14.0043 37.8695C14.0082 37.022 14.3643 36.6739 15.218 36.6731C18.1837 36.6699 21.1501 36.6707 24.1157 36.6723C25.0375 36.6723 25.3588 36.9801 25.3667 37.9011C25.377 39.1537 25.3691 40.4062 25.3691 41.658C25.3691 43.3457 25.3699 45.0327 25.3683 46.7204C25.3675 47.7206 25.066 48.0276 24.0738 48.0252C23.0721 48.0229 22.0711 48.0007 21.0694 48.0023C19.145 48.0047 17.2215 48.0205 15.2972 48.026C14.2978 48.0284 14.0011 47.7285 14.0019 46.7284C14.0019 46.0036 14.0114 45.2788 14.0138 44.5532C14.0161 43.8284 14.0145 43.1036 14.0145 42.378C14.0106 42.378 14.0066 42.378 14.0019 42.378Z" fill="white"/>
<path d="M31.0281 36.6844C29.5524 36.6844 28.0768 36.6844 26.6011 36.6844C25.6183 36.6844 25.3422 36.4082 25.3438 35.4089C25.3501 32.6553 25.3604 29.9025 25.3691 27.149C25.3699 26.834 25.3509 26.5167 25.3786 26.2034C25.4276 25.6424 25.7054 25.39 26.2743 25.3512C26.3922 25.3433 26.5109 25.3441 26.6295 25.3441C29.5675 25.3441 32.5054 25.3433 35.4433 25.3441C36.4277 25.3441 36.6856 25.5989 36.6832 26.5816C36.6769 29.0701 36.665 31.5594 36.6587 34.0479C36.6579 34.5614 36.6872 35.075 36.6801 35.5877C36.669 36.3892 36.3667 36.6828 35.5731 36.6844C34.0594 36.686 32.5442 36.6844 31.0281 36.6844Z" fill="white"/>
</svg>
