<svg width="112" height="16" viewBox="0 0 112 16" fill="none" xmlns="http://www.w3.org/2000/svg">
<g clip-path="url(#clip0_1106_7986)">
<path d="M32.5948 9.5822C32.5948 10.5944 32.4407 11.4012 32.1385 11.9816C31.584 13.0354 30.5453 13.5476 28.9636 13.5476C27.6636 13.5476 26.7688 13.0756 26.2279 12.1037C25.8549 11.4435 25.6659 10.5957 25.6659 9.5822V0.0493164H22.9316V8.74261C22.9316 10.6169 23.1922 12.0873 23.7064 13.1159C24.6633 15.0297 26.4858 15.9988 29.1253 15.9988C31.7648 15.9988 33.5913 15.0297 34.5543 13.1159C35.0679 12.0873 35.3291 10.6169 35.3291 8.74261V0.0493164H32.5948V9.5822Z" fill="white"/>
<path d="M42.7148 3.83325C41.9638 3.83325 41.2702 3.98398 40.6529 4.28204C40.2615 4.47096 39.8816 4.73764 39.5187 5.07798V4.07606H37.0981V15.6032H39.6101V9.58149C39.6101 8.90014 39.6531 8.37769 39.7383 8.02644C39.8147 7.70179 39.9893 7.37782 40.2567 7.06272C40.5943 6.66577 40.9694 6.40932 41.4134 6.27769C41.6549 6.2013 41.9768 6.16174 42.371 6.16174C43.0926 6.16174 43.553 6.4216 43.8203 6.97883C43.9922 7.33417 44.0802 7.82115 44.0802 8.4268V15.6019H46.6222V8.30676C46.6222 7.14865 46.4646 6.27291 46.14 5.63179C45.5398 4.43754 44.3871 3.83325 42.7154 3.83325H42.7148Z" fill="white"/>
<path d="M58.2659 7.20666C58.5401 7.01978 58.7693 6.82198 58.952 6.61396C59.54 5.9517 59.838 5.09847 59.838 4.07745C59.838 3.2058 59.6 2.4235 59.1273 1.75374C58.3266 0.622913 56.9823 0.0493164 55.1313 0.0493164H48.4009V15.6039H55.0296C57.0894 15.6039 58.6219 14.9731 59.5829 13.7297C60.2281 12.8956 60.5555 11.9503 60.5555 10.9176C60.5555 9.68519 60.1831 8.70033 59.4479 7.98759C59.1512 7.70114 58.7611 7.44264 58.2652 7.20597L58.2659 7.20666ZM56.2116 6.01513C55.7901 6.22656 55.1735 6.33364 54.3824 6.33364H51.0642V2.41941H54.3114C55.1381 2.41941 55.7594 2.50603 56.1584 2.67449C56.8227 2.9589 57.133 3.48203 57.133 4.32026C57.133 5.15849 56.8316 5.70412 56.2109 6.01445L56.2116 6.01513ZM51.0642 8.65258H54.7159C55.5105 8.65258 56.1502 8.74943 56.6201 8.94177C57.4488 9.27801 57.8512 9.8939 57.8512 10.8269C57.8512 11.3978 57.7107 11.867 57.4229 12.2613C56.9605 12.8887 56.1884 13.1936 55.0596 13.1936H51.0636V8.65258H51.0642Z" fill="white"/>
<path d="M64.1789 0.0493164H61.667V15.6039H64.1789V0.0493164Z" fill="white"/>
<path d="M68.3471 0.0493164H65.8052V2.80408H68.3471V0.0493164Z" fill="white"/>
<path d="M68.3471 4.1272H65.8052V15.6039H68.3471V4.1272Z" fill="white"/>
<path d="M75.6132 3.83325C74.8623 3.83325 74.1686 3.98398 73.5514 4.28204C73.1599 4.47096 72.78 4.73764 72.4171 5.07798V4.07606H69.9966V15.6032H72.5085V9.58149C72.5085 8.90014 72.5515 8.37769 72.6368 8.02644C72.7131 7.70179 72.8878 7.37782 73.1551 7.06272C73.4927 6.66577 73.8678 6.40932 74.3119 6.27769C74.5533 6.2013 74.8752 6.16174 75.2694 6.16174C75.991 6.16174 76.4514 6.4216 76.7188 6.97883C76.8907 7.33417 76.9786 7.82115 76.9786 8.4268V15.6019H79.5206V8.30676C79.5206 7.14865 79.3631 6.27291 79.0384 5.63179C78.4382 4.43754 77.2856 3.83325 75.6139 3.83325H75.6132Z" fill="white"/>
<path d="M91.0101 4.07677H87.6947L83.5063 8.20039V0.0493164H81.0659V15.6039H83.5063V11.3432L84.6153 10.3311L87.8768 15.6039H91.0305L86.4581 8.52913L91.0101 4.07677Z" fill="white"/>
<path d="M100.087 5.93121C99.6762 5.30851 99.076 4.79698 98.3025 4.41026C97.5366 4.02832 96.7332 3.83325 95.912 3.83325C94.2894 3.83325 92.956 4.42117 91.948 5.58064C90.9515 6.72647 90.4468 8.22969 90.4468 10.0473C90.4468 11.865 90.9515 13.3655 91.9486 14.4083C92.9506 15.4559 94.1885 15.9879 95.6282 15.9879C96.2059 15.9879 96.7345 15.9306 97.1935 15.8167C98.0679 15.6141 98.8147 15.2165 99.4061 14.6395C99.7614 14.3067 100.085 13.8736 100.368 13.3532C100.655 12.8273 100.827 12.3369 100.879 11.8984L100.925 11.513H98.4833L98.4123 11.7647C98.293 12.191 98.0863 12.5695 97.8005 12.8914C97.2979 13.448 96.637 13.7188 95.7803 13.7188C94.8705 13.7188 94.2232 13.4391 93.8024 12.8635C93.4137 12.3308 93.1804 11.6269 93.1102 10.7669H101.033V10.4218C101.033 9.29435 100.978 8.48886 100.867 7.97665C100.737 7.20322 100.475 6.51504 100.087 5.93121ZM95.8008 6.11195C96.8443 6.11195 97.5625 6.48503 97.9997 7.25301C98.2009 7.60494 98.3434 8.066 98.4267 8.62936H93.1681C93.2527 7.94118 93.5085 7.37577 93.947 6.90789C94.4497 6.37249 95.0553 6.11195 95.8001 6.11195H95.8008Z" fill="white"/>
<path d="M109.247 -0.0012207V4.92311C109.046 4.72942 108.856 4.57664 108.673 4.46342C108.06 4.07875 107.297 3.88437 106.405 3.88437C104.794 3.88437 103.536 4.5173 102.667 5.76612C101.822 6.97606 101.396 8.42267 101.396 10.0678C101.396 11.8315 101.87 13.2706 102.805 14.3469C103.754 15.4361 104.896 15.9885 106.203 15.9885C107.004 15.9885 107.728 15.8269 108.354 15.505C108.716 15.3208 109.052 15.0678 109.359 14.752V15.6046H111.689V-0.0012207H109.248H109.247ZM109.318 9.8454C109.318 11.1181 109.067 12.0982 108.571 12.7598C108.092 13.3982 107.503 13.7098 106.769 13.7098C105.801 13.7098 105.122 13.3784 104.694 12.697C104.238 11.9741 104.008 11.0553 104.008 9.96749C104.008 8.69276 104.27 7.72358 104.785 7.08928C105.291 6.46657 105.932 6.16375 106.749 6.16375C107.473 6.16375 108.065 6.44679 108.56 7.02858C109.063 7.61854 109.318 8.56658 109.318 9.84609V9.8454Z" fill="white"/>
<path d="M7.2501 0.487919V6.77702C7.2501 7.04779 7.03184 7.25718 6.76994 7.25718H0.480157C0.218253 7.25718 0 7.04779 0 6.77702V0.487919C0 0.225333 0.218253 0.00708008 0.480157 0.00708008H6.76926C7.03116 0.00708008 7.24941 0.225333 7.24941 0.487237L7.2501 0.487919ZM15.5042 8.74266H0.480157C0.218253 8.74266 0 8.96091 0 9.22282V11.494C0 13.9746 2.01748 15.9921 4.49874 15.9921H11.4863C13.9668 15.9921 15.985 13.9746 15.985 11.494V9.22282C15.985 8.96091 15.7667 8.74266 15.5048 8.74266H15.5042ZM15.5042 0.00708008H9.21506C8.95315 0.00708008 8.7349 0.225333 8.7349 0.487237V6.77702C8.7349 7.04779 8.95315 7.25718 9.21506 7.25718H15.5042C15.7661 7.25718 15.9843 7.04779 15.9843 6.77702V0.487919C15.9843 0.226015 15.7661 0.00776212 15.5042 0.00776212V0.00708008Z" fill="url(#paint0_linear_1106_7986)"/>
</g>
<defs>
<linearGradient id="paint0_linear_1106_7986" x1="-0.403768" y1="11.998" x2="16.9262" y2="1.9925" gradientUnits="userSpaceOnUse">
<stop stop-color="#4772FF"/>
<stop offset="0.56" stop-color="#BE659D"/>
<stop offset="1" stop-color="#FF5C42"/>
</linearGradient>
<clipPath id="clip0_1106_7986">
<rect width="111.688" height="16" fill="white"/>
</clipPath>
</defs>
</svg>
