<svg width="19" height="16" viewBox="0 0 19 16" fill="none" xmlns="http://www.w3.org/2000/svg">
<path d="M14.1139 5.291C14.6659 4.739 15.2139 3.451 12.9139 5.015C9.64592 7.27 6.42492 9.387 6.42492 9.387C6.09336 9.53693 5.73491 9.61829 5.37112 9.62619C5.00732 9.6341 4.64568 9.56838 4.30792 9.433C2.92792 9.019 1.31692 8.467 1.31692 8.467C1.31692 8.467 0.216918 7.776 2.09992 7.04C2.09992 7.04 10.0609 3.773 12.8219 2.622C13.8799 2.162 17.4689 0.690001 17.4689 0.690001C17.4689 0.690001 19.1259 0.0450013 18.9879 1.61C18.9419 2.254 18.5739 4.51 18.2059 6.948C17.6529 10.399 17.0549 14.173 17.0549 14.173C17.0549 14.173 16.9629 15.231 16.1809 15.415C15.3438 15.4008 14.535 15.1097 13.8809 14.587C13.6969 14.449 10.4299 12.378 9.23292 11.366C9.11116 11.2835 9.01223 11.1716 8.94535 11.0406C8.87848 10.9096 8.84581 10.7638 8.8504 10.6168C8.85499 10.4698 8.89669 10.3264 8.97161 10.1998C9.04653 10.0733 9.15225 9.96773 9.27892 9.893C10.9389 8.375 12.9179 6.488 14.1139 5.291Z" fill="#A6ADC1"/>
</svg>
