<svg width="126" height="62" viewBox="0 0 126 62" fill="none" xmlns="http://www.w3.org/2000/svg">
<path d="M87.5433 23.9091H89.9148V32.4616C89.9148 33.3991 89.6932 34.2237 89.25 34.9354C88.8111 35.647 88.1932 36.2031 87.3963 36.6037C86.5994 37 85.6683 37.1982 84.603 37.1982C83.5334 37.1982 82.6001 37 81.8033 36.6037C81.0064 36.2031 80.3885 35.647 79.9496 34.9354C79.5107 34.2237 79.2912 33.3991 79.2912 32.4616V23.9091H81.6626V32.2635C81.6626 32.8089 81.782 33.2947 82.0206 33.7209C82.2635 34.147 82.6044 34.4815 83.0433 34.7244C83.4822 34.9631 84.0021 35.0824 84.603 35.0824C85.2038 35.0824 85.7237 34.9631 86.1626 34.7244C86.6058 34.4815 86.9467 34.147 87.1854 33.7209C87.424 33.2947 87.5433 32.8089 87.5433 32.2635V23.9091ZM92.3901 40.6818V27.1818H94.6657V28.8054H94.7999C94.9192 28.5668 95.0875 28.3132 95.3049 28.0447C95.5222 27.772 95.8162 27.5398 96.187 27.348C96.5577 27.152 97.0307 27.054 97.606 27.054C98.3645 27.054 99.0485 27.2479 99.6578 27.6357C100.271 28.0192 100.757 28.5881 101.115 29.3423C101.477 30.0923 101.659 31.0128 101.659 32.1037C101.659 33.1818 101.482 34.098 101.128 34.8523C100.774 35.6065 100.293 36.1818 99.6834 36.5781C99.074 36.9744 98.3837 37.1726 97.6124 37.1726C97.0499 37.1726 96.5833 37.0788 96.2125 36.8913C95.8418 36.7038 95.5435 36.478 95.3176 36.2138C95.0961 35.9453 94.9235 35.6918 94.7999 35.4531H94.704V40.6818H92.3901ZM94.6593 32.0909C94.6593 32.7259 94.7488 33.282 94.9277 33.7592C95.111 34.2365 95.373 34.6094 95.714 34.8778C96.0591 35.142 96.4767 35.2741 96.9668 35.2741C97.4782 35.2741 97.9064 35.1378 98.2516 34.8651C98.5968 34.5881 98.8567 34.2109 99.0314 33.7337C99.2104 33.2521 99.2999 32.7045 99.2999 32.0909C99.2999 31.4815 99.2125 30.9403 99.0378 30.4673C98.8631 29.9943 98.6032 29.6236 98.258 29.3551C97.9128 29.0866 97.4824 28.9524 96.9668 28.9524C96.4725 28.9524 96.0527 29.0824 95.7076 29.3423C95.3624 29.6023 95.1003 29.9666 94.9213 30.4354C94.7466 30.9041 94.6593 31.456 94.6593 32.0909ZM103.742 37V23.9091H106.056V28.8054H106.152C106.271 28.5668 106.44 28.3132 106.657 28.0447C106.874 27.772 107.169 27.5398 107.539 27.348C107.91 27.152 108.383 27.054 108.958 27.054C109.717 27.054 110.401 27.2479 111.01 27.6357C111.624 28.0192 112.11 28.5881 112.468 29.3423C112.83 30.0923 113.011 31.0128 113.011 32.1037C113.011 33.1818 112.834 34.098 112.48 34.8523C112.127 35.6065 111.645 36.1818 111.036 36.5781C110.426 36.9744 109.736 37.1726 108.965 37.1726C108.402 37.1726 107.936 37.0788 107.565 36.8913C107.194 36.7038 106.896 36.478 106.67 36.2138C106.448 35.9453 106.276 35.6918 106.152 35.4531H106.018V37H103.742ZM106.012 32.0909C106.012 32.7259 106.101 33.282 106.28 33.7592C106.463 34.2365 106.725 34.6094 107.066 34.8778C107.411 35.142 107.829 35.2741 108.319 35.2741C108.83 35.2741 109.259 35.1378 109.604 34.8651C109.949 34.5881 110.209 34.2109 110.384 33.7337C110.563 33.2521 110.652 32.7045 110.652 32.0909C110.652 31.4815 110.565 30.9403 110.39 30.4673C110.215 29.9943 109.955 29.6236 109.61 29.3551C109.265 29.0866 108.835 28.9524 108.319 28.9524C107.825 28.9524 107.405 29.0824 107.06 29.3423C106.715 29.6023 106.453 29.9666 106.274 30.4354C106.099 30.9041 106.012 31.456 106.012 32.0909ZM114.978 37V27.1818H117.292V37H114.978ZM116.141 25.7884C115.775 25.7884 115.46 25.6669 115.195 25.424C114.931 25.1768 114.799 24.8807 114.799 24.5355C114.799 24.1861 114.931 23.8899 115.195 23.647C115.46 23.3999 115.775 23.2763 116.141 23.2763C116.512 23.2763 116.827 23.3999 117.087 23.647C117.352 23.8899 117.484 24.1861 117.484 24.5355C117.484 24.8807 117.352 25.1768 117.087 25.424C116.827 25.6669 116.512 25.7884 116.141 25.7884ZM124.574 27.1818V28.9716H118.93V27.1818H124.574ZM120.323 24.8295H122.637V34.0469C122.637 34.358 122.684 34.5966 122.778 34.7628C122.876 34.9247 123.004 35.0355 123.161 35.0952C123.319 35.1548 123.494 35.1847 123.686 35.1847C123.83 35.1847 123.963 35.174 124.082 35.1527C124.205 35.1314 124.299 35.1122 124.363 35.0952L124.753 36.9041C124.629 36.9467 124.453 36.9936 124.222 37.0447C123.997 37.0959 123.72 37.1257 123.392 37.1342C122.812 37.1513 122.29 37.0639 121.825 36.8722C121.361 36.6761 120.992 36.3736 120.72 35.9645C120.451 35.5554 120.319 35.044 120.323 34.4304V24.8295Z" fill="white"/>
<path opacity="0.2" d="M31 62C48.1208 62 62 48.1208 62 31C62 13.8792 48.1208 0 31 0C13.8792 0 0 13.8792 0 31C0 48.1208 13.8792 62 31 62Z" fill="#5979CB"/>
<path d="M32.522 22.0475C30.9218 23.7233 29.3624 25.3558 27.803 26.9884C27.8161 27.0093 27.8285 27.0294 27.8416 27.0503C28.6394 26.8413 29.4372 26.6315 30.2974 26.4063C30.016 27.2748 29.7547 28.0891 29.488 28.9011C28.3226 32.4549 27.1509 36.0063 25.9955 39.5632C25.8906 39.8852 25.7473 39.9998 25.4027 39.999C21.6789 39.9858 17.9551 39.9936 14.2312 39.9897C11.6243 39.9866 10.8026 38.1397 11.0385 36.2525C11.2035 34.928 11.7507 33.7065 12.1554 32.4487C13.2207 29.1326 14.3191 25.828 15.3882 22.5135C15.51 22.1357 15.6734 21.9933 16.0874 22.0002C17.7307 22.0281 19.3741 22.0119 21.0183 22.0119C21.4476 22.0119 21.4492 22.0134 21.3135 22.4275C19.9715 26.5309 18.6249 30.6343 17.2898 34.7407C17.1526 35.1618 16.9476 35.5775 17.0609 36.0512C17.202 36.6372 17.5442 36.9569 18.1331 36.9677C18.9933 36.9832 19.8536 36.9592 20.7138 36.9786C21.0437 36.9863 21.0792 36.7603 21.1493 36.5451C22.2863 33.0633 23.4209 29.5815 24.5563 26.099C24.9672 24.8403 25.3819 23.5832 25.7866 22.323C25.8544 22.1117 25.95 22.0064 26.1905 22.008C28.2447 22.0165 30.2997 22.0126 32.3539 22.0142C32.3886 22.0126 32.4233 22.0266 32.522 22.0475Z" fill="white"/>
<path d="M50.4005 23.7809C49.8671 22.5447 48.8781 22.0191 47.587 22.0144C44.7627 22.0036 41.9377 22.0113 39.1134 22.0113C37.6496 22.0113 36.1858 22.0175 34.7228 22.0059C34.4284 22.0036 34.3729 22.0787 34.4715 22.355C34.618 22.7661 34.7267 23.1902 34.8516 23.609C35.193 24.7492 35.5345 25.8887 35.8968 27.097C35.2401 26.8818 34.6434 26.7014 34.0599 26.487C33.8133 26.3965 33.7323 26.4669 33.6614 26.6952C33.4456 27.395 33.2113 28.0894 32.9831 28.786C31.7983 32.4002 30.6175 36.0151 29.4219 39.6254C29.3132 39.9543 29.3911 40 29.7009 39.9977C31.3567 39.9853 33.0132 39.9845 34.6696 39.9977C35.0227 40.0008 35.1892 39.8785 35.2971 39.5325C35.8074 37.9015 36.3601 36.2837 36.8657 34.6519C36.9759 34.2974 37.1355 34.203 37.487 34.2053C39.515 34.2216 41.5438 34.213 43.5726 34.2138C43.9202 34.2138 44.2671 34.1875 44.6016 34.0985C46.6081 33.5644 48.105 32.3692 49.0647 30.5292C49.7754 29.1661 50.177 27.6822 50.5739 26.206C50.7921 25.3956 50.7397 24.5673 50.4005 23.7809ZM44.6016 26.6287C44.3373 27.621 44.0274 28.601 43.6605 29.5601C43.2388 30.66 42.411 31.2081 41.2355 31.2073C40.1972 31.2065 39.1581 31.2058 38.1198 31.2034C38.0959 31.2034 38.072 31.1887 38.0034 31.1671C38.1699 30.657 38.3364 30.1476 38.5029 29.6375C38.9646 28.2225 39.4325 26.8098 39.8827 25.3909C39.9706 25.1138 40.0993 25.0039 40.3984 25.0093C41.385 25.0271 42.3724 25.0132 43.3599 25.0171C44.3897 25.0217 44.8676 25.6293 44.6016 26.6287Z" fill="white"/>
</svg>
